<svg width="168" height="143" viewBox="0 0 168 143" fill="none" xmlns="http://www.w3.org/2000/svg">
<path d="M6.09961 103.406L15.5391 125.994L25.0137 103.406H27.8965V129H25.7344V117.855L25.9102 106.43L16.3828 129H14.7129L5.2207 106.518L5.39648 117.785V129H3.23438V103.406H6.09961ZM41.2559 129.352C39.6387 129.352 38.1738 128.953 36.8613 128.156C35.5605 127.359 34.5469 126.252 33.8203 124.834C33.0938 123.404 32.7305 121.805 32.7305 120.035V119.279C32.7305 117.451 33.082 115.805 33.7852 114.34C34.5 112.875 35.4902 111.727 36.7559 110.895C38.0215 110.051 39.3926 109.629 40.8691 109.629C43.1777 109.629 45.0059 110.42 46.3535 112.002C47.7129 113.572 48.3926 115.723 48.3926 118.453V119.631H34.8223V120.035C34.8223 122.191 35.4375 123.99 36.668 125.432C37.9102 126.861 39.4688 127.576 41.3438 127.576C42.4688 127.576 43.459 127.371 44.3145 126.961C45.1816 126.551 45.9668 125.895 46.6699 124.992L47.9883 125.994C46.4414 128.232 44.1973 129.352 41.2559 129.352ZM40.8691 111.422C39.2871 111.422 37.9512 112.002 36.8613 113.162C35.7832 114.322 35.127 115.881 34.8926 117.838H46.3008V117.609C46.2422 115.781 45.7207 114.293 44.7363 113.145C43.752 111.996 42.4629 111.422 40.8691 111.422ZM61.2773 111.773C60.832 111.691 60.3574 111.65 59.8535 111.65C58.541 111.65 57.4277 112.02 56.5137 112.758C55.6113 113.484 54.9668 114.545 54.5801 115.939V129H52.4883V109.98H54.5449L54.5801 113.004C55.6934 110.754 57.4805 109.629 59.9414 109.629C60.5273 109.629 60.9902 109.705 61.3301 109.857L61.2773 111.773ZM71.2969 127.576C72.7617 127.576 73.9863 127.166 74.9707 126.346C75.9668 125.514 76.5059 124.441 76.5879 123.129H78.6094C78.5508 124.289 78.1875 125.35 77.5195 126.311C76.8516 127.26 75.9609 128.004 74.8477 128.543C73.7461 129.082 72.5625 129.352 71.2969 129.352C68.8008 129.352 66.8203 128.484 65.3555 126.75C63.9023 125.016 63.1758 122.684 63.1758 119.754V119.121C63.1758 117.246 63.5039 115.588 64.1602 114.146C64.8164 112.705 65.7539 111.592 66.9727 110.807C68.2031 110.021 69.6387 109.629 71.2793 109.629C73.3652 109.629 75.082 110.25 76.4297 111.492C77.7891 112.734 78.5156 114.369 78.6094 116.396H76.5879C76.4941 114.908 75.9551 113.707 74.9707 112.793C73.998 111.879 72.7676 111.422 71.2793 111.422C69.3809 111.422 67.9043 112.107 66.8496 113.479C65.8066 114.85 65.2852 116.771 65.2852 119.244V119.859C65.2852 122.285 65.8066 124.178 66.8496 125.537C67.9043 126.896 69.3867 127.576 71.2969 127.576ZM84.9199 113.197C85.6113 112.061 86.4961 111.182 87.5742 110.561C88.6523 109.939 89.8301 109.629 91.1074 109.629C93.1465 109.629 94.6641 110.203 95.6602 111.352C96.6562 112.5 97.1602 114.223 97.1719 116.52V129H95.0801V116.502C95.0684 114.803 94.7051 113.537 93.9902 112.705C93.2871 111.873 92.1562 111.457 90.5977 111.457C89.2969 111.457 88.1426 111.867 87.1348 112.688C86.1387 113.496 85.4004 114.592 84.9199 115.975V129H82.8281V102H84.9199V113.197ZM103.078 129V103.406H110.637C113.379 103.406 115.459 103.975 116.877 105.111C118.295 106.236 119.004 107.9 119.004 110.104C119.004 111.428 118.641 112.582 117.914 113.566C117.199 114.539 116.215 115.236 114.961 115.658C116.449 115.986 117.645 116.719 118.547 117.855C119.461 118.992 119.918 120.305 119.918 121.793C119.918 124.055 119.186 125.824 117.721 127.102C116.268 128.367 114.24 129 111.639 129H103.078ZM105.24 116.695V127.172H111.727C113.578 127.172 115.043 126.703 116.121 125.766C117.211 124.816 117.756 123.504 117.756 121.828C117.756 120.246 117.234 118.998 116.191 118.084C115.16 117.158 113.73 116.695 111.902 116.695H105.24ZM105.24 114.885H111.146C112.951 114.85 114.346 114.428 115.33 113.619C116.326 112.799 116.824 111.609 116.824 110.051C116.824 108.41 116.309 107.203 115.277 106.43C114.258 105.645 112.711 105.252 110.637 105.252H105.24V114.885ZM123.504 119.209C123.504 117.381 123.855 115.734 124.559 114.27C125.273 112.805 126.275 111.668 127.564 110.859C128.865 110.039 130.336 109.629 131.977 109.629C134.508 109.629 136.559 110.52 138.129 112.301C139.699 114.07 140.484 116.42 140.484 119.35V119.789C140.484 121.629 140.127 123.287 139.412 124.764C138.709 126.229 137.713 127.359 136.424 128.156C135.135 128.953 133.664 129.352 132.012 129.352C129.492 129.352 127.441 128.467 125.859 126.697C124.289 124.916 123.504 122.561 123.504 119.631V119.209ZM125.613 119.789C125.613 122.062 126.199 123.932 127.371 125.396C128.555 126.85 130.102 127.576 132.012 127.576C133.91 127.576 135.445 126.85 136.617 125.396C137.801 123.932 138.393 122.004 138.393 119.613V119.209C138.393 117.756 138.123 116.426 137.584 115.219C137.045 114.012 136.289 113.08 135.316 112.424C134.344 111.756 133.23 111.422 131.977 111.422C130.102 111.422 128.572 112.16 127.389 113.637C126.205 115.102 125.613 117.023 125.613 119.402V119.789ZM150.434 117.697L155.566 109.98H158.062L151.611 119.314L158.344 129H155.865L150.451 120.949L145.037 129H142.559L149.273 119.314L142.822 109.98H145.301L150.434 117.697Z" fill="white" fill-opacity="0.5"/>
<path d="M4 80.5661L20.0646 95.1246V39.1495L50.6879 69.7727L82.0641 39.1495V95.1246H145.57C148.582 95.1246 150.506 92.9492 152.347 91.8615C157.2 88.0964 166.906 77.805 166.906 66.7605C166.906 55.7161 160.714 49.6082 157.618 47.9348C161.467 46.8471 168.713 40.7057 166.906 24.8419C165.098 8.97807 150.255 3.00404 143.06 2H105.91V16.8096H143.06C146.155 17.1443 152.347 19.7213 152.347 27.352C152.347 34.9827 146.155 39.5678 143.06 40.9065H115.448V55.2141H143.06C147.578 55.9671 151.945 62.3428 152.347 66.7605C152.749 71.1783 148.08 79.813 143.06 80.5661H96.8737V2L50.6879 47.9348L4 2V80.5661Z" fill="white" stroke="white"/>
</svg>
